<?xml version="1.0" encoding="utf-8"?>
<!-- Generator: Adobe Illustrator 28.3.0, SVG Export Plug-In . SVG Version: 6.00 Build 0)  -->
<svg version="1.1" id="Camada_1" xmlns="http://www.w3.org/2000/svg" xmlns:xlink="http://www.w3.org/1999/xlink" x="0px" y="0px"
	 viewBox="0 0 1366 768" style="enable-background:new 0 0 1366 768;" xml:space="preserve">
<style type="text/css">
	.st0{clip-path:url(#SVGID_00000003802656467185755890000011429663383826867865_);}
	.st1{clip-path:url(#SVGID_00000086681081241874085530000007855000578855723662_);}
	.st2{clip-path:url(#SVGID_00000141435918976339116170000004730307199446557584_);}
	
		.st3{clip-path:url(#SVGID_00000026150992919200301520000009637149904343778493_);fill:url(#SVGID_00000028287548744738374740000010647248949235385738_);}
	.st4{clip-path:url(#SVGID_00000077315397382488942800000012716545081994678932_);}
	.st5{clip-path:url(#SVGID_00000153663136571296893920000011927621815154879416_);}
	
		.st6{clip-path:url(#SVGID_00000073689949900836340300000005322536585339462282_);fill:url(#SVGID_00000041282990277723740000000005307495153039115157_);}
	
		.st7{clip-path:url(#SVGID_00000060730261290942741970000002434031635438300343_);fill:url(#SVGID_00000053510645167640330480000002549506032619487893_);}
	
		.st8{clip-path:url(#SVGID_00000091702174308665861690000003148121596815402915_);fill:url(#SVGID_00000023273828821086982880000004468755375697288881_);}
	
		.st9{clip-path:url(#SVGID_00000091702174308665861690000003148121596815402915_);fill-rule:evenodd;clip-rule:evenodd;fill:#1C1A34;}
	
		.st10{clip-path:url(#SVGID_00000091702174308665861690000003148121596815402915_);fill-rule:evenodd;clip-rule:evenodd;fill:#FFFFFF;}
	
		.st11{clip-path:url(#SVGID_00000005257395242441029690000016177368738346755222_);fill:url(#SVGID_00000109744545064929547490000003935431277479155849_);}
	.st12{clip-path:url(#SVGID_00000027573021849894963420000009210340957941154452_);}
	
		.st13{clip-path:url(#SVGID_00000000205267777829880710000006690886084885835445_);fill-rule:evenodd;clip-rule:evenodd;fill:#1D1E1C;}
	
		.st14{clip-path:url(#SVGID_00000133512995362439707170000007006140407012024463_);fill:url(#SVGID_00000040574928513642646300000008521083179571934091_);}
	
		.st15{clip-path:url(#SVGID_00000079479084201769525050000015370871632635377330_);fill-rule:evenodd;clip-rule:evenodd;fill:#FFFFFF;}
	.st16{clip-path:url(#SVGID_00000079479084201769525050000015370871632635377330_);}
	.st17{clip-path:url(#SVGID_00000119828759196004963310000003945390998917311911_);}
	
		.st18{clip-path:url(#SVGID_00000018945668067706140740000007136867552430398092_);fill:url(#SVGID_00000179611981344397886100000000680468421258333067_);}
	
		.st19{clip-path:url(#SVGID_00000123434863870857483380000005379797862699117503_);fill:url(#SVGID_00000093877197868469888560000015915174441387920056_);}
	
		.st20{clip-path:url(#SVGID_00000114794983635171077230000008210695964381969540_);fill:url(#SVGID_00000107566739321655343130000005531785979175238319_);}
	
		.st21{clip-path:url(#SVGID_00000111153269924400588750000001316404844305512348_);fill:url(#SVGID_00000067209160849852359840000014170325595896470193_);}
	
		.st22{clip-path:url(#SVGID_00000004526083175155226270000001613667524251542945_);fill:url(#SVGID_00000038371056196939418320000018436162159951680932_);}
	
		.st23{clip-path:url(#SVGID_00000069381554591505690850000003491876950692936856_);fill:url(#SVGID_00000165204528859004884660000014924613965274941858_);}
	
		.st24{clip-path:url(#SVGID_00000000907332983301349770000015359433282465734327_);fill:url(#SVGID_00000128461268294446434280000017488484202889342355_);}
	
		.st25{clip-path:url(#SVGID_00000054980495534099026290000004411421009670361502_);fill:url(#SVGID_00000096748407796582988870000000541210445467526301_);}
	
		.st26{clip-path:url(#SVGID_00000176025074947502142170000002100475375162064525_);fill:url(#SVGID_00000179630038510124266850000011639348191001048976_);}
	
		.st27{clip-path:url(#SVGID_00000116937443235104594750000010635351103999672251_);fill:url(#SVGID_00000032628154992670858830000009974705185355254424_);}
	
		.st28{clip-path:url(#SVGID_00000141442998467227771580000006992787762738400911_);fill:url(#SVGID_00000156585576377095761940000001241804016541507465_);}
	
		.st29{clip-path:url(#SVGID_00000086674479968374970290000002981308133763880614_);fill:url(#SVGID_00000148629486610859197490000002794500589361493155_);}
	
		.st30{clip-path:url(#SVGID_00000051365105023446133760000015071719300947995303_);fill:url(#SVGID_00000164508868989663033590000002664455939014685071_);}
	
		.st31{clip-path:url(#SVGID_00000065792029596792960120000000649829857670067595_);fill:url(#SVGID_00000123432407217510512720000010398589909990520707_);}
	
		.st32{clip-path:url(#SVGID_00000023254411622048959740000009180836593674704050_);fill:url(#SVGID_00000126312938986971215450000018440640447342368923_);}
	
		.st33{clip-path:url(#SVGID_00000085233863026910431940000004108365832706083773_);fill:url(#SVGID_00000018238226154415120710000007318483065651924140_);}
	
		.st34{clip-path:url(#SVGID_00000166669857124439502610000017842155458682944134_);fill:url(#SVGID_00000098182723515066786140000002639030582845810053_);}
	
		.st35{clip-path:url(#SVGID_00000158739823888466869700000007447774927695613103_);fill:url(#SVGID_00000018932317211027377270000008096988166450241677_);}
	
		.st36{clip-path:url(#SVGID_00000176020432687972921610000010692459657100169396_);fill:url(#SVGID_00000152944976602124087270000009224784780242495400_);}
	
		.st37{clip-path:url(#SVGID_00000011753141099286093550000008483677911232491428_);fill:url(#SVGID_00000102513782960148477770000014041412185067820160_);}
</style>
<g>
	<defs>
		<rect id="SVGID_1_" x="177.07" y="71.94" width="1020.36" height="616.06"/>
	</defs>
	<clipPath id="SVGID_00000089571616971461086950000012524547443206936713_">
		<use xlink:href="#SVGID_1_"  style="overflow:visible;"/>
	</clipPath>
	<g style="clip-path:url(#SVGID_00000089571616971461086950000012524547443206936713_);">
		<g>
			<defs>
				<rect id="SVGID_00000046308656354523166830000006466509041175195813_" x="-294.61" y="52.68" width="1935.4" height="1088.13"/>
			</defs>
			<clipPath id="SVGID_00000094615162369533933990000009623856591766256527_">
				<use xlink:href="#SVGID_00000046308656354523166830000006466509041175195813_"  style="overflow:visible;"/>
			</clipPath>
			<g style="clip-path:url(#SVGID_00000094615162369533933990000009623856591766256527_);">
				<defs>
					
						<rect id="SVGID_00000143611019183887028340000009349568362956127164_" x="-294.61" y="52.68" width="1935.4" height="1088.13"/>
				</defs>
				<clipPath id="SVGID_00000010303171677774152820000009403946134679228340_">
					<use xlink:href="#SVGID_00000143611019183887028340000009349568362956127164_"  style="overflow:visible;"/>
				</clipPath>
				<g style="clip-path:url(#SVGID_00000010303171677774152820000009403946134679228340_);">
					<defs>
						<path id="SVGID_00000016790425454703898710000009206117329924245179_" d="M262.94,390.85
							c0-115.53,190.66-209.18,425.85-209.18s425.85,93.65,425.85,209.18c0,115.53-190.66,209.18-425.85,209.18
							C453.59,600.03,262.94,506.38,262.94,390.85 M234.33,394.89c0,123.25,203.47,223.16,454.46,223.16
							c250.99,0,454.46-99.91,454.46-223.16c0-123.25-203.47-223.17-454.46-223.17C437.79,171.73,234.33,271.64,234.33,394.89"/>
					</defs>
					<clipPath id="SVGID_00000155859188949281914510000004123041145065057436_">
						<use xlink:href="#SVGID_00000016790425454703898710000009206117329924245179_"  style="overflow:visible;"/>
					</clipPath>
					
						<linearGradient id="SVGID_00000102531511941673454610000015704665996997506984_" gradientUnits="userSpaceOnUse" x1="-0.2167" y1="-1.4362" x2="1.2002" y2="-1.4362" gradientTransform="matrix(641.5124 0 0 -641.5124 373.319 -526.4724)">
						<stop  offset="0" style="stop-color:#E2EFF8"/>
						<stop  offset="0.1333" style="stop-color:#E2EFF8"/>
						<stop  offset="0.1591" style="stop-color:#D9EBF6"/>
						<stop  offset="0.2013" style="stop-color:#C0E0F1"/>
						<stop  offset="0.2548" style="stop-color:#98CEEA"/>
						<stop  offset="0.3174" style="stop-color:#61B6DF"/>
						<stop  offset="0.3869" style="stop-color:#1A97D1"/>
						<stop  offset="0.4095" style="stop-color:#028CCC"/>
						<stop  offset="0.6272" style="stop-color:#028CCC"/>
						<stop  offset="0.676" style="stop-color:#2EA0D5"/>
						<stop  offset="0.7541" style="stop-color:#6FBCE2"/>
						<stop  offset="0.8252" style="stop-color:#A3D3EC"/>
						<stop  offset="0.8867" style="stop-color:#C8E3F4"/>
						<stop  offset="0.9362" style="stop-color:#DFEDF8"/>
						<stop  offset="0.9675" style="stop-color:#E7F1FA"/>
						<stop  offset="1" style="stop-color:#E7F1FA"/>
					</linearGradient>
					
						<rect x="234.33" y="171.73" style="clip-path:url(#SVGID_00000155859188949281914510000004123041145065057436_);fill:url(#SVGID_00000102531511941673454610000015704665996997506984_);" width="908.92" height="446.32"/>
				</g>
				<g style="clip-path:url(#SVGID_00000010303171677774152820000009403946134679228340_);">
					<defs>
						
							<rect id="SVGID_00000004510372858248940960000001198938271229987986_" x="-294.61" y="52.68" width="1935.4" height="1088.13"/>
					</defs>
					<clipPath id="SVGID_00000120521897360395398470000010480558097463500424_">
						<use xlink:href="#SVGID_00000004510372858248940960000001198938271229987986_"  style="overflow:visible;"/>
					</clipPath>
					<g style="clip-path:url(#SVGID_00000120521897360395398470000010480558097463500424_);">
						<g>
							<defs>
								
									<rect id="SVGID_00000138567920428856967860000011576927790955943845_" x="234.33" y="171.73" width="908.92" height="446.33"/>
							</defs>
							<clipPath id="SVGID_00000127019582532090426840000012944206190060638343_">
								<use xlink:href="#SVGID_00000138567920428856967860000011576927790955943845_"  style="overflow:visible;"/>
							</clipPath>
							<g style="clip-path:url(#SVGID_00000127019582532090426840000012944206190060638343_);">
								<defs>
									<path id="SVGID_00000073714485725299121360000016569589936450768810_" d="M688.79,181.67
										c235.19,0,425.85,93.65,425.85,209.18c0,115.53-190.66,209.18-425.85,209.18c-235.19,0-425.85-93.65-425.85-209.18
										C262.93,275.32,453.59,181.67,688.79,181.67 M688.79,171.73c250.99,0,454.46,99.91,454.46,223.17
										c0,123.25-203.47,223.16-454.46,223.16c-250.99,0-454.46-99.91-454.46-223.16C234.33,271.64,437.79,171.73,688.79,171.73"
										/>
								</defs>
								<clipPath id="SVGID_00000134247999141340667520000004981182703547100804_">
									<use xlink:href="#SVGID_00000073714485725299121360000016569589936450768810_"  style="overflow:visible;"/>
								</clipPath>
								
									<linearGradient id="SVGID_00000161606286205808005780000008683760692190569141_" gradientUnits="userSpaceOnUse" x1="-0.2167" y1="-1.4362" x2="1.2002" y2="-1.4362" gradientTransform="matrix(641.5124 0 0 -641.5124 373.319 -526.4724)">
									<stop  offset="0" style="stop-color:#1C1A34"/>
									<stop  offset="0.1333" style="stop-color:#1C1A34"/>
									<stop  offset="0.1767" style="stop-color:#25233C"/>
									<stop  offset="0.2478" style="stop-color:#3D3B52"/>
									<stop  offset="0.3377" style="stop-color:#656376"/>
									<stop  offset="0.4419" style="stop-color:#9C9AA7"/>
									<stop  offset="0.5239" style="stop-color:#CCCBD2"/>
									<stop  offset="0.6341" style="stop-color:#92919E"/>
									<stop  offset="0.7443" style="stop-color:#605E71"/>
									<stop  offset="0.8407" style="stop-color:#3B3950"/>
									<stop  offset="0.9184" style="stop-color:#24223C"/>
									<stop  offset="0.9675" style="stop-color:#1C1A34"/>
									<stop  offset="1" style="stop-color:#1C1A34"/>
								</linearGradient>
								
									<rect x="234.33" y="171.73" style="clip-path:url(#SVGID_00000134247999141340667520000004981182703547100804_);fill:url(#SVGID_00000161606286205808005780000008683760692190569141_);" width="908.92" height="446.33"/>
							</g>
						</g>
					</g>
				</g>
				<g style="clip-path:url(#SVGID_00000010303171677774152820000009403946134679228340_);">
					<defs>
						<path id="SVGID_00000087403697249839870200000003251919598191525549_" d="M257.4,375.73c0-117.03,193.14-211.9,431.39-211.9
							s431.39,94.87,431.39,211.9c0,117.03-193.14,211.9-431.39,211.9C450.54,587.63,257.4,492.76,257.4,375.73 M228.42,379.82
							c0,124.85,206.11,226.06,460.37,226.06c254.25,0,460.37-101.21,460.37-226.06c0-124.85-206.11-234.67-460.37-234.67
							C434.53,145.15,228.42,254.97,228.42,379.82"/>
					</defs>
					<clipPath id="SVGID_00000137840954486154789440000007201214083928049807_">
						<use xlink:href="#SVGID_00000087403697249839870200000003251919598191525549_"  style="overflow:visible;"/>
					</clipPath>
					
						<linearGradient id="SVGID_00000086690510453096796880000015486320197132980359_" gradientUnits="userSpaceOnUse" x1="-0.2166" y1="-1.409" x2="1.2003" y2="-1.409" gradientTransform="matrix(649.8504 0 0 -649.8504 369.1499 -540.1433)">
						<stop  offset="0" style="stop-color:#D9B753"/>
						<stop  offset="0.6818" style="stop-color:#D3AF44"/>
						<stop  offset="0.9134" style="stop-color:#D3B357"/>
						<stop  offset="1" style="stop-color:#D3B357"/>
					</linearGradient>
					
						<rect x="228.42" y="145.15" style="clip-path:url(#SVGID_00000137840954486154789440000007201214083928049807_);fill:url(#SVGID_00000086690510453096796880000015486320197132980359_);" width="920.73" height="460.74"/>
				</g>
				<g style="clip-path:url(#SVGID_00000010303171677774152820000009403946134679228340_);">
					<defs>
						
							<rect id="SVGID_00000165230474943869575980000006092173024096667784_" x="-294.61" y="52.68" width="1935.4" height="1088.13"/>
					</defs>
					<clipPath id="SVGID_00000167378405043199809810000012742219775413306765_">
						<use xlink:href="#SVGID_00000165230474943869575980000006092173024096667784_"  style="overflow:visible;"/>
					</clipPath>
					
						<linearGradient id="SVGID_00000063593013806455009080000010450593393819920536_" gradientUnits="userSpaceOnUse" x1="-0.2155" y1="-1.4069" x2="1.2014" y2="-1.4069" gradientTransform="matrix(650.85 0 0 -650.85 368.65 -540.143)">
						<stop  offset="0" style="stop-color:#D9B753"/>
						<stop  offset="0.6818" style="stop-color:#D3AF44"/>
						<stop  offset="0.9134" style="stop-color:#D3B357"/>
						<stop  offset="1" style="stop-color:#D3B357"/>
					</linearGradient>
					
						<path style="clip-path:url(#SVGID_00000167378405043199809810000012742219775413306765_);fill:url(#SVGID_00000063593013806455009080000010450593393819920536_);" d="
						M688.79,163.83L688.79,163.83c238.25,0,431.39,94.87,431.39,211.9c0,117.03-193.14,211.9-431.39,211.9
						c-238.25,0-431.39-94.87-431.39-211.9C257.4,258.7,450.54,163.83,688.79,163.83L688.79,163.83L688.79,163.83
						c-238.25,0-431.39,94.87-431.39,211.9c0,117.03,193.14,211.9,431.39,211.9c238.25,0,431.39-94.87,431.39-211.9
						C1120.17,258.7,927.03,163.83,688.79,163.83L688.79,163.83z M688.79,145.15c254.25,0,460.37,109.82,460.37,234.67
						c0,124.85-206.11,226.06-460.37,226.06c-254.25,0-460.37-101.21-460.37-226.06C228.42,254.97,434.53,145.15,688.79,145.15
						L688.79,145.15c-254.25,0-460.37,109.82-460.37,234.67c0,124.85,206.11,226.06,460.37,226.06
						c254.25,0,460.37-101.21,460.37-226.06C1149.15,254.97,943.04,145.15,688.79,145.15L688.79,145.15z"/>
					
						<path style="clip-path:url(#SVGID_00000167378405043199809810000012742219775413306765_);fill-rule:evenodd;clip-rule:evenodd;fill:#1C1A34;" d="
						M688.78,188.58c225.1,0,407.59,83.79,407.59,187.15c0,103.36-182.48,187.15-407.59,187.15c-225.1,0-407.59-83.79-407.59-187.15
						C281.2,272.37,463.68,188.58,688.78,188.58 M688.78,163.83c238.25,0,431.39,94.87,431.39,211.9
						c0,117.03-193.14,211.9-431.39,211.9c-238.25,0-431.39-94.87-431.39-211.9C257.4,258.7,450.54,163.83,688.78,163.83"/>
					
						<path style="clip-path:url(#SVGID_00000167378405043199809810000012742219775413306765_);fill-rule:evenodd;clip-rule:evenodd;fill:#FFFFFF;" d="
						M456.86,240.84h463.86h0.01l-0.21-0.07l-0.15-0.05c-2.35-0.77-4.73-1.52-7.12-2.26l-0.59-0.18c-2.43-0.75-4.89-1.49-7.36-2.22
						l-0.01,0c-2.48-0.73-4.99-1.45-7.51-2.15l-0.58-0.16c-2.47-0.69-4.95-1.36-7.45-2.03l-0.26-0.07c-2.54-0.67-5.1-1.33-7.68-1.97
						l-0.61-0.15c-2.54-0.63-5.09-1.26-7.66-1.86l-0.28-0.07c-2.64-0.62-5.3-1.24-7.98-1.83l-0.49-0.11
						c-2.56-0.57-5.14-1.13-7.73-1.67l-0.64-0.14c-2.67-0.56-5.37-1.11-8.07-1.64l-0.49-0.09c-2.64-0.52-5.29-1.02-7.96-1.52
						l-0.64-0.12c-2.76-0.51-5.53-1-8.32-1.48l-0.42-0.07c-2.72-0.46-5.46-0.92-8.21-1.36l-0.66-0.11c-2.82-0.45-5.65-0.88-8.49-1.3
						l-0.16-0.02l-0.16-0.02c-2.8-0.41-5.62-0.81-8.45-1.19l-0.89-0.12c-2.86-0.38-5.73-0.76-8.61-1.11l-0.1-0.01
						c-2.94-0.36-5.9-0.71-8.88-1.04l-0.7-0.08c-2.84-0.32-5.69-0.62-8.55-0.91l-0.6-0.06c-2.95-0.29-5.9-0.57-8.87-0.84l-0.77-0.07
						c-2.86-0.25-5.73-0.49-8.61-0.72l-0.72-0.06c-2.96-0.23-5.93-0.44-8.92-0.64l-0.94-0.06c-2.81-0.19-5.64-0.36-8.47-0.52
						l-1.06-0.06c-3-0.17-6.01-0.32-9.03-0.45l-0.72-0.03c-2.93-0.13-5.87-0.24-8.82-0.34l-0.92-0.03c-3.06-0.1-6.13-0.19-9.21-0.26
						l-0.75-0.01c-2.96-0.06-5.93-0.11-8.9-0.15l-1.02-0.01c-3.08-0.03-6.18-0.05-9.28-0.05l-0.22,0l-0.22,0
						c-3.1,0-6.19,0.02-9.28,0.05l-1.02,0.01c-2.98,0.04-5.94,0.08-8.9,0.15l-0.75,0.01c-3.08,0.07-6.15,0.16-9.21,0.26l-0.92,0.03
						c-2.95,0.1-5.89,0.21-8.82,0.34l-0.73,0.03c-3.02,0.13-6.03,0.28-9.02,0.45l-1.07,0.06c-2.83,0.16-5.65,0.33-8.46,0.51
						l-0.95,0.06c-2.98,0.2-5.95,0.41-8.91,0.64l-0.73,0.06c-2.88,0.23-5.74,0.46-8.6,0.72l-0.78,0.07
						c-2.97,0.27-5.92,0.54-8.86,0.84l-0.63,0.06c-2.85,0.29-5.69,0.59-8.52,0.9l-0.73,0.08c-2.96,0.33-5.92,0.68-8.85,1.04
						l-0.14,0.02c-2.87,0.36-5.72,0.73-8.56,1.11l-0.94,0.13c-2.81,0.38-5.61,0.78-8.4,1.19l-0.19,0.03l-0.16,0.02
						c-2.84,0.42-5.65,0.85-8.46,1.3l-0.72,0.11c-2.73,0.44-5.45,0.89-8.15,1.35l-0.46,0.08c-2.78,0.48-5.54,0.97-8.29,1.47
						l-0.69,0.13c-2.65,0.49-5.29,0.99-7.91,1.51l-0.54,0.1c-2.7,0.53-5.39,1.08-8.06,1.64l-0.65,0.14c-2.58,0.54-5.15,1.1-7.7,1.66
						l-0.54,0.12c-2.67,0.59-5.31,1.2-7.94,1.82l-0.34,0.08c-2.55,0.6-5.08,1.22-7.6,1.85l-0.67,0.16c-2.57,0.65-5.12,1.3-7.65,1.97
						l-0.26,0.07c-2.5,0.66-4.98,1.33-7.44,2.02l-0.6,0.17c-2.52,0.7-5.02,1.42-7.5,2.15l-0.01,0c-2.48,0.73-4.93,1.47-7.36,2.22
						l-0.59,0.18c-2.41,0.75-4.8,1.5-7.16,2.27l-0.09,0.03L456.86,240.84L456.86,240.84z M920.71,510.62H456.86h-0.01l0.19,0.06
						l0.07,0.02l0.01,0c1.28,0.42,2.57,0.83,3.87,1.24c1.15,0.36,2.31,0.73,3.47,1.09l0.47,0.15c2.34,0.72,4.69,1.43,7.06,2.13
						l0.52,0.15c2.44,0.72,4.9,1.42,7.38,2.11l0.47,0.13c2.42,0.67,4.86,1.34,7.32,1.99l0.53,0.14c2.53,0.67,5.07,1.32,7.64,1.96
						l0.49,0.12c2.51,0.63,5.03,1.24,7.58,1.84l0.5,0.12c2.59,0.61,5.2,1.21,7.83,1.8l0.64,0.14c2.57,0.57,5.15,1.13,7.75,1.67
						l0.45,0.09c2.68,0.56,5.38,1.11,8.09,1.64l0.62,0.12c2.61,0.51,5.24,1.01,7.88,1.5l0.62,0.12c2.7,0.49,5.42,0.98,8.15,1.45
						l0.8,0.14c2.65,0.45,5.32,0.89,7.99,1.32l0.61,0.1c2.78,0.44,5.58,0.87,8.39,1.29l0.78,0.11c2.75,0.4,5.5,0.79,8.28,1.17
						l0.51,0.07c2.85,0.38,5.71,0.75,8.58,1.11l0.82,0.1c2.81,0.35,5.64,0.68,8.48,1l0.49,0.06c2.89,0.32,5.8,0.63,8.72,0.93
						l0.93,0.09c2.86,0.28,5.73,0.56,8.62,0.82l0.44,0.04c2.94,0.26,5.9,0.51,8.86,0.74l1.01,0.08c2.88,0.22,5.77,0.43,8.67,0.62
						l0.56,0.04c2.98,0.2,5.97,0.38,8.97,0.55l1.04,0.06c2.95,0.16,5.92,0.31,8.89,0.44l0.43,0.02c3.07,0.13,6.16,0.25,9.25,0.36
						l0.84,0.03c3,0.1,6.01,0.18,9.03,0.25l0.73,0.02c3.04,0.07,6.08,0.12,9.14,0.15l0.97,0.01c3.09,0.03,6.18,0.05,9.28,0.05
						l0.21,0l0.21,0c3.1,0,6.2-0.02,9.28-0.05l0.97-0.01c3.05-0.03,6.1-0.08,9.13-0.15l0.73-0.02c3.02-0.07,6.03-0.15,9.03-0.25
						l0.84-0.03c3.09-0.1,6.18-0.22,9.25-0.36l0.43-0.02c2.97-0.13,5.94-0.28,8.89-0.44l1.03-0.06c3-0.17,5.99-0.35,8.97-0.55
						l0.57-0.04c2.9-0.19,5.79-0.4,8.67-0.62l1.01-0.08c2.97-0.23,5.92-0.48,8.86-0.74l0.44-0.04c2.88-0.26,5.76-0.53,8.62-0.82
						l0.93-0.09c2.92-0.3,5.82-0.6,8.72-0.93l0.49-0.06c2.84-0.32,5.67-0.65,8.49-1l0.8-0.1c2.88-0.36,5.74-0.73,8.59-1.11l0.5-0.07
						c2.78-0.38,5.54-0.77,8.29-1.17l0.75-0.11c2.82-0.42,5.63-0.84,8.41-1.29l0.57-0.09c2.69-0.43,5.36-0.87,8.02-1.32l0.8-0.14
						c2.73-0.47,5.45-0.95,8.16-1.45l0.61-0.11c2.65-0.49,5.29-0.99,7.91-1.51l0.58-0.11c2.72-0.53,5.41-1.08,8.09-1.64l0.48-0.1
						c2.6-0.55,5.18-1.1,7.75-1.67l0.61-0.14c2.63-0.59,5.25-1.19,7.84-1.8l0.49-0.12c2.55-0.6,5.08-1.22,7.6-1.85l0.45-0.11
						c2.58-0.65,5.13-1.3,7.67-1.98l0.48-0.13c2.47-0.65,4.92-1.32,7.35-2l0.47-0.13c2.49-0.69,4.96-1.4,7.41-2.12l0.48-0.14
						c2.38-0.7,4.74-1.42,7.09-2.14l0.47-0.15c1.16-0.36,2.32-0.72,3.47-1.09c1.3-0.41,2.59-0.82,3.87-1.24l0.01,0l0.06-0.02
						L920.71,510.62L920.71,510.62 M429.75,500.92h518.07c78.69-30.83,128.17-75.49,128.17-125.19c0-49.7-49.48-94.36-128.18-125.19
						H429.76c-78.69,30.83-128.18,75.5-128.18,125.19C301.58,425.43,351.06,470.09,429.75,500.92 M688.78,188.58
						c109.69,0,209.25,19.9,282.51,52.26h0.66v0.3c76.7,34.03,124.41,81.75,124.41,134.59c0,52.84-47.71,100.56-124.41,134.59v0.3
						h-0.66c-73.26,32.36-172.82,52.26-282.51,52.26c-109.69,0-209.25-19.9-282.51-52.27h-0.66v-0.3
						c-76.7-34.03-124.41-81.75-124.41-134.59c0-52.84,47.71-100.56,124.41-134.59v-0.3h0.66
						C479.54,208.48,579.09,188.58,688.78,188.58"/>
					
						<path style="clip-path:url(#SVGID_00000167378405043199809810000012742219775413306765_);fill-rule:evenodd;clip-rule:evenodd;fill:#1C1A34;" d="
						M689,544.17l-0.21,0l-0.21,0l0.21,0L689,544.17z M947.82,250.54c78.69,30.83,128.18,75.5,128.18,125.19
						c0,49.7-49.48,94.36-128.17,125.19H429.75c-78.69-30.83-128.17-75.49-128.17-125.19c0-49.7,49.48-94.36,128.18-125.19H947.82
						 M688.78,207.29l0.22,0L688.78,207.29l-0.22,0L688.78,207.29"/>
				</g>
				<g style="clip-path:url(#SVGID_00000010303171677774152820000009403946134679228340_);">
					<defs>
						<path id="SVGID_00000157297678985389876170000011761693350668848271_" d="M456.85,510.62c1.37,0.45,2.75,0.89,4.13,1.33
							c63.92,20.26,142.65,32.22,227.8,32.22c85.15,0,163.88-11.96,227.8-32.22c1.38-0.44,2.76-0.88,4.13-1.33H456.85z
							 M456.85,240.84h463.87c-64.65-21.07-144.94-33.55-231.94-33.55C601.79,207.29,521.5,219.77,456.85,240.84"/>
					</defs>
					<clipPath id="SVGID_00000096769426000780435550000006689067761437903760_">
						<use xlink:href="#SVGID_00000157297678985389876170000011761693350668848271_"  style="overflow:visible;"/>
					</clipPath>
					
						<linearGradient id="SVGID_00000076586908320851022470000005707758123901653914_" gradientUnits="userSpaceOnUse" x1="-0.2246" y1="-2.797" x2="1.1923" y2="-2.797" gradientTransform="matrix(327.3973 0 0 -327.3973 530.3763 -539.9948)">
						<stop  offset="0" style="stop-color:#E2EFF8"/>
						<stop  offset="0.1333" style="stop-color:#E2EFF8"/>
						<stop  offset="0.1591" style="stop-color:#D9EBF6"/>
						<stop  offset="0.2013" style="stop-color:#C0E0F1"/>
						<stop  offset="0.2548" style="stop-color:#98CEEA"/>
						<stop  offset="0.3174" style="stop-color:#61B6DF"/>
						<stop  offset="0.3869" style="stop-color:#1A97D1"/>
						<stop  offset="0.4095" style="stop-color:#028CCC"/>
						<stop  offset="0.6272" style="stop-color:#149BD7"/>
						<stop  offset="0.6583" style="stop-color:#2EA6DB"/>
						<stop  offset="0.7412" style="stop-color:#6FC0E6"/>
						<stop  offset="0.8166" style="stop-color:#A3D5EF"/>
						<stop  offset="0.8818" style="stop-color:#C8E4F5"/>
						<stop  offset="0.9343" style="stop-color:#DFEEF9"/>
						<stop  offset="0.9675" style="stop-color:#E7F1FA"/>
						<stop  offset="1" style="stop-color:#E7F1FA"/>
					</linearGradient>
					
						<rect x="456.85" y="207.29" style="clip-path:url(#SVGID_00000096769426000780435550000006689067761437903760_);fill:url(#SVGID_00000076586908320851022470000005707758123901653914_);" width="463.87" height="336.88"/>
				</g>
				<g style="clip-path:url(#SVGID_00000010303171677774152820000009403946134679228340_);">
					<defs>
						
							<rect id="SVGID_00000070078969191383144910000016274103755796730271_" x="-294.61" y="52.68" width="1935.4" height="1088.13"/>
					</defs>
					<clipPath id="SVGID_00000138566500571021759130000009494278542428168590_">
						<use xlink:href="#SVGID_00000070078969191383144910000016274103755796730271_"  style="overflow:visible;"/>
					</clipPath>
					<g style="clip-path:url(#SVGID_00000138566500571021759130000009494278542428168590_);">
						<g>
							<defs>
								
									<rect id="SVGID_00000002382159258392978580000000775674658835457418_" x="361.38" y="290.7" width="664.25" height="163.89"/>
							</defs>
							<clipPath id="SVGID_00000165211659337459163340000001485278043588682918_">
								<use xlink:href="#SVGID_00000002382159258392978580000000775674658835457418_"  style="overflow:visible;"/>
							</clipPath>
							
								<path style="clip-path:url(#SVGID_00000165211659337459163340000001485278043588682918_);fill-rule:evenodd;clip-rule:evenodd;fill:#1D1E1C;" d="
								M1024.7,348.19l-12.11,19.78c-6.66-5.85-15.56-8.77-26.75-8.77c-10.76,0-19.24,3.32-25.47,10
								c-6.23,6.64-9.37,15.88-9.37,27.64c0,23.75,12.15,35.62,36.42,35.62c10.49,0,19.74-3.25,27.75-9.71l10.45,20.83
								c-8.24,4.8-15.44,7.83-21.6,9.09c-6.16,1.26-13.43,1.91-21.83,1.91c-18.77,0-33.56-5.12-44.39-15.3
								c-10.84-10.18-16.3-24.33-16.3-42.45c0-17.83,5.96-32.26,17.8-43.24c11.88-11.01,28.06-16.49,48.54-16.49
								C1002.03,337.11,1014.29,340.79,1024.7,348.19 M818.68,384.03h59.64c-1.94-16.53-11.77-24.83-29.46-24.83
								C832.69,359.2,822.63,367.5,818.68,384.03 M904.41,403.92h-86.74c0.54,9.02,3.87,16.06,9.99,21.04
								c6.12,5.02,14.36,7.51,24.73,7.51c12.93,0,22.72-3.14,29.45-9.38l10.99,20.18c-9.95,7.54-24.85,11.33-44.66,11.33
								c-18.5,0-33.17-5.09-43.93-15.19c-10.76-10.11-16.18-24.22-16.18-42.34c0-17.83,5.92-32.3,17.77-43.35
								c11.84-11.08,26.01-16.6,42.58-16.6c17.61,0,31.74,4.87,42.42,14.69c10.64,9.78,15.98,22.27,15.98,37.43
								C906.81,392.48,906,397.39,904.41,403.92 M687.04,366.17v59.12c4.18,4.58,9.79,6.86,16.91,6.86
								c13.66,0,23.38-2.99,29.07-9.06c5.73-6.06,8.59-15.77,8.59-29.09c0-22.99-11.81-34.47-35.42-34.47
								C697.84,359.53,691.46,361.73,687.04,366.17 M681.05,446.22l-6.35,8.37h-15.98V297.02l28.33-6.32v52.84
								c7.59-4.3,15.83-6.43,24.73-6.43c17.77,0,32.08,5.23,42.96,15.7c10.91,10.47,16.33,23.86,16.33,40.24
								c0,18.95-5.46,33.93-16.45,44.97c-10.95,11.04-25.81,16.56-44.55,16.56C698.81,454.59,689.14,451.78,681.05,446.22
								 M599.3,452.46V360.9h-15.56v-21.69h44.24v113.26H599.3 M613.93,295.32c4.53,0,8.4,1.51,11.61,4.51
								c3.21,3,4.84,6.61,4.84,10.83c0,4.22-1.63,7.87-4.84,10.86c-3.21,3-7.09,4.48-11.61,4.48c-4.53,0-8.44-1.48-11.65-4.48
								c-3.21-3-4.8-6.64-4.8-10.86c0-4.22,1.59-7.83,4.8-10.83C605.49,296.83,609.4,295.32,613.93,295.32 M528.05,297.02
								l28.37-6.32V418c0,13.97,4.45,22.27,13.39,24.94c-4.41,7.76-11.88,11.66-22.45,11.66c-12.85,0-19.31-8.34-19.31-24.97V297.02
								 M434.07,342.82l-19.97,57.2H454L434.07,342.82 M474.75,452.46l-12.12-31.4H405.7l-11.57,31.4h-32.74l66.22-157.03h12.93
								l66.77,157.03H474.75"/>
						</g>
					</g>
				</g>
				<g style="clip-path:url(#SVGID_00000010303171677774152820000009403946134679228340_);">
					<defs>
						<path id="SVGID_00000070118160457476206200000001437989495787014054_" d="M574.9,325.32v30.9h15.56l0,91.57h37.89V325.32
							H574.9z M844.63,354.52c13.33,0,21.04,5,23.92,15.62h-47.88C824.8,359.52,832.53,354.52,844.63,354.52 M798.45,341.07
							c-12.76,11.9-19.23,27.62-19.23,46.71c0,19.33,5.93,34.7,17.63,45.7c11.62,10.91,27.46,16.44,47.08,16.44
							c20.75,0,36.71-4.13,47.44-12.27l3.16-2.39l-15.72-28.85l-4.34,4.02c-5.84,5.41-14.7,8.16-26.32,8.16
							c-9.24,0-16.58-2.18-21.83-6.47c-3.98-3.24-6.51-7.48-7.66-12.87h85.12l0.85-3.52c1.7-7.01,2.53-12.17,2.53-15.77
							c0-16.43-5.88-30.16-17.48-40.82c-11.48-10.55-26.8-15.9-45.53-15.9C826.48,323.23,811.1,329.23,798.45,341.07 M931.95,340.95
							c-12.79,11.85-19.28,27.53-19.28,46.61c0,19.33,5.97,34.74,17.75,45.8c11.69,10.98,27.69,16.55,47.55,16.55
							c8.62,0,16.27-0.67,22.75-2c6.61-1.36,14.35-4.6,22.99-9.63l3.74-2.18l-14.95-29.79l-4.44,3.58
							c-7.25,5.85-15.38,8.69-24.86,8.69c-21.71,0-31.82-9.86-31.82-31.02c0-10.51,2.73-18.75,8.13-24.51
							c5.36-5.74,12.59-8.54,22.1-8.54c10.11,0,17.86,2.5,23.71,7.63l4.11,3.61l17.22-28.1l-3.51-2.49
							c-11.14-7.92-24.44-11.93-39.52-11.93C962.03,323.23,944.64,329.19,931.95,340.95 M429.82,347.52l13.46,38.62h-26.94
							L429.82,347.52z M420.31,281.54L350.2,447.79h42.89l11.57-31.4h50.56l12.12,31.4h42.67l-70.68-166.24H420.31z M594.9,287.18
							c-4.16,3.88-6.27,8.65-6.27,14.19c0,5.49,2.17,10.41,6.26,14.23c4.06,3.79,9.04,5.71,14.79,5.71c5.73,0,10.69-1.92,14.75-5.71
							c4.12-3.84,6.3-8.76,6.3-14.23c0-5.52-2.12-10.29-6.3-14.19c-4.09-3.81-9.05-5.75-14.75-5.75
							C603.96,281.44,598.99,283.37,594.9,287.18 M519.2,284.05l0,136.29c0,11.05,3.11,29.58,23.92,29.58
							c12.28,0,21.17-4.7,26.45-13.98l2.86-5.03l-5.55-1.66c-2.5-0.75-10.11-3.02-10.11-20.53V275.68L519.2,284.05z M687.41,414.09
							v-55.16c3.46-2.74,8.25-4.08,14.55-4.08c21.02,0,30.81,9.49,30.81,29.87c0,12.05-2.47,20.77-7.35,25.94
							c-4.74,5.05-13.39,7.61-25.71,7.61C694.59,418.26,690.55,416.89,687.41,414.09 M649.87,284.05v165.87h22.88l5.19-6.85
							c8.07,4.55,17.43,6.85,27.9,6.85c19.93,0,36.02-6.03,47.81-17.92c11.8-11.86,17.79-28.09,17.79-48.22
							c0-17.61-5.97-32.27-17.74-43.56c-11.71-11.27-27.24-16.99-46.16-16.99c-7.06,0-13.8,1.26-20.13,3.74v-51.29L649.87,284.05z"
							/>
					</defs>
					<clipPath id="SVGID_00000088843022320542965800000008862467909753904017_">
						<use xlink:href="#SVGID_00000070118160457476206200000001437989495787014054_"  style="overflow:visible;"/>
					</clipPath>
					
						<linearGradient id="SVGID_00000057833957398867185140000007205286127269190835_" gradientUnits="userSpaceOnUse" x1="-0.2195" y1="-1.9078" x2="1.1974" y2="-1.9078" gradientTransform="matrix(477.994 0 0 -477.994 455.1043 -549.1241)">
						<stop  offset="0" style="stop-color:#D9B753"/>
						<stop  offset="0.6818" style="stop-color:#D3AF44"/>
						<stop  offset="0.9134" style="stop-color:#D3B357"/>
						<stop  offset="1" style="stop-color:#D3B357"/>
					</linearGradient>
					
						<rect x="350.2" y="275.68" style="clip-path:url(#SVGID_00000088843022320542965800000008862467909753904017_);fill:url(#SVGID_00000057833957398867185140000007205286127269190835_);" width="677.24" height="174.24"/>
				</g>
				<g style="clip-path:url(#SVGID_00000010303171677774152820000009403946134679228340_);">
					<defs>
						
							<rect id="SVGID_00000008828413331195541330000000187693155181943947_" x="-294.61" y="52.68" width="1935.4" height="1088.13"/>
					</defs>
					<clipPath id="SVGID_00000076592841394136442080000007072973143575117219_">
						<use xlink:href="#SVGID_00000008828413331195541330000000187693155181943947_"  style="overflow:visible;"/>
					</clipPath>
					
						<path style="clip-path:url(#SVGID_00000076592841394136442080000007072973143575117219_);fill-rule:evenodd;clip-rule:evenodd;fill:#FFFFFF;" d="
						M1020.46,338.91l-12.12,19.78c-6.66-5.85-15.56-8.77-26.75-8.77c-10.76,0-19.24,3.32-25.47,10
						c-6.23,6.64-9.37,15.88-9.37,27.65c0,23.75,12.15,35.62,36.42,35.62c10.49,0,19.74-3.25,27.75-9.71l10.45,20.82
						c-8.24,4.8-15.44,7.83-21.6,9.1c-6.16,1.26-13.43,1.91-21.83,1.91c-18.77,0-33.56-5.12-44.39-15.3
						c-10.84-10.18-16.3-24.33-16.3-42.45c0-17.83,5.96-32.27,17.8-43.24c11.88-11.01,28.06-16.49,48.54-16.49
						C997.78,327.83,1010.05,331.52,1020.46,338.91 M814.44,374.75h59.64c-1.94-16.53-11.77-24.83-29.45-24.83
						C828.45,349.92,818.38,358.22,814.44,374.75 M900.17,394.64h-86.74c0.54,9.02,3.87,16.06,9.99,21.04
						c6.12,5.02,14.36,7.51,24.73,7.51c12.93,0,22.72-3.14,29.45-9.38l10.99,20.18c-9.95,7.54-24.85,11.33-44.66,11.33
						c-18.5,0-33.17-5.09-43.93-15.19c-10.76-10.11-16.18-24.22-16.18-42.34c0-17.83,5.92-32.3,17.76-43.35
						c11.84-11.08,26.01-16.6,42.57-16.6c17.61,0,31.74,4.87,42.42,14.69c10.64,9.78,15.99,22.27,15.99,37.43
						C902.57,383.2,901.75,388.11,900.17,394.64 M682.8,356.89V416c4.18,4.58,9.79,6.86,16.92,6.86c13.66,0,23.38-3,29.07-9.06
						c5.73-6.06,8.59-15.77,8.59-29.09c0-22.99-11.81-34.47-35.42-34.47C693.6,350.25,687.21,352.45,682.8,356.89 M676.8,436.94
						l-6.35,8.37h-15.98V287.74l28.33-6.32v52.84c7.59-4.3,15.83-6.43,24.73-6.43c17.77,0,32.09,5.23,42.96,15.7
						c10.92,10.47,16.33,23.86,16.33,40.24c0,18.95-5.46,33.92-16.45,44.97c-10.96,11.04-25.82,16.56-44.55,16.56
						C694.57,445.31,684.89,442.5,676.8,436.94 M595.06,443.18v-91.57H579.5v-21.69h44.24v113.26H595.06 M609.69,286.04
						c4.53,0,8.4,1.52,11.61,4.51c3.21,3,4.84,6.6,4.84,10.83c0,4.22-1.63,7.87-4.84,10.86c-3.21,3-7.08,4.48-11.61,4.48
						c-4.53,0-8.44-1.48-11.65-4.48c-3.21-3-4.8-6.64-4.8-10.86c0-4.22,1.59-7.83,4.8-10.83
						C601.25,287.55,605.16,286.04,609.69,286.04 M523.8,287.74l28.37-6.32v127.29c0,13.97,4.45,22.27,13.39,24.94
						c-4.41,7.76-11.88,11.66-22.45,11.66c-12.85,0-19.31-8.34-19.31-24.98V287.74 M429.83,333.54l-19.97,57.21h39.9L429.83,333.54
						 M470.51,443.18l-12.12-31.4h-56.93l-11.57,31.4h-32.74l66.22-157.04h12.93l66.77,157.04H470.51"/>
					<g style="clip-path:url(#SVGID_00000076592841394136442080000007072973143575117219_);">
						<g>
							<defs>
								
									<rect id="SVGID_00000125601538515408140380000012380922555739853710_" x="456.85" y="207.29" width="463.87" height="336.88"/>
							</defs>
							<clipPath id="SVGID_00000087375828484034483990000005490710340738252704_">
								<use xlink:href="#SVGID_00000125601538515408140380000012380922555739853710_"  style="overflow:visible;"/>
							</clipPath>
							<g style="clip-path:url(#SVGID_00000087375828484034483990000005490710340738252704_);">
								<defs>
									<path id="SVGID_00000111911719608142069650000003877856647935832249_" d="M920.72,510.62l-463.87,0
										c1.37,0.45,2.75,0.89,4.13,1.33c63.92,20.26,142.65,32.22,227.8,32.22c85.15,0,163.88-11.96,227.8-32.22
										C917.97,511.51,919.35,511.07,920.72,510.62 M920.72,240.84c-64.65-21.07-144.94-33.55-231.94-33.55
										c-86.99,0-167.29,12.48-231.94,33.55H920.72"/>
								</defs>
								<clipPath id="SVGID_00000128454192606841053530000007404170970090871462_">
									<use xlink:href="#SVGID_00000111911719608142069650000003877856647935832249_"  style="overflow:visible;"/>
								</clipPath>
								
									<linearGradient id="SVGID_00000181076817301617098210000016660138294660189630_" gradientUnits="userSpaceOnUse" x1="-0.2246" y1="-2.797" x2="1.1923" y2="-2.797" gradientTransform="matrix(327.3973 0 0 -327.3973 530.3763 -539.9948)">
									<stop  offset="0" style="stop-color:#1C1A34"/>
									<stop  offset="0.1333" style="stop-color:#1C1A34"/>
									<stop  offset="0.1767" style="stop-color:#25233C"/>
									<stop  offset="0.2478" style="stop-color:#3D3B52"/>
									<stop  offset="0.3377" style="stop-color:#656376"/>
									<stop  offset="0.4419" style="stop-color:#9C9AA7"/>
									<stop  offset="0.5239" style="stop-color:#CCCBD2"/>
									<stop  offset="0.7428" style="stop-color:#6E6C7E"/>
									<stop  offset="0.895" style="stop-color:#333149"/>
									<stop  offset="0.9675" style="stop-color:#1C1A34"/>
									<stop  offset="1" style="stop-color:#1C1A34"/>
								</linearGradient>
								
									<rect x="456.85" y="207.29" style="clip-path:url(#SVGID_00000128454192606841053530000007404170970090871462_);fill:url(#SVGID_00000181076817301617098210000016660138294660189630_);" width="463.87" height="336.88"/>
							</g>
						</g>
					</g>
				</g>
				<g style="clip-path:url(#SVGID_00000010303171677774152820000009403946134679228340_);">
					<defs>
						<path id="SVGID_00000181054521771869627050000017928120580610894999_" d="M306.2,769.6h-35.49c0,7.08,6.76,7.08,6.76,7.08h23
							c0,0-15.59,24.09-26.92,46.76c-11.33,22.67-14.17,24.09-17,24.09s-11.33-17-11.33-17c-3.54,10.63,0.71,20.54,7.79,24.79
							c7.08,4.25,17-2.83,21.25-12.75c3.13-7.31,10.1-18.45,13.56-23.82c1.17-1.81,2.19-3.68,3.1-5.64
							c5.79-12.52,23.01-37.13,23.01-37.13c32.59,0,31.88-2.13,31.88-2.13c-5.67-2.83-25.5-4.25-25.5-4.25s-2.83-5.67-7.08-5.67
							S306.2,769.6,306.2,769.6"/>
					</defs>
					<clipPath id="SVGID_00000111895455148682806350000009136305802729397400_">
						<use xlink:href="#SVGID_00000181054521771869627050000017928120580610894999_"  style="overflow:visible;"/>
					</clipPath>
					
						<linearGradient id="SVGID_00000160912997101884884410000000365092393267139773_" gradientUnits="userSpaceOnUse" x1="-1.8938" y1="-14.535" x2="-0.477" y2="-14.535" gradientTransform="matrix(71.8995 0 0 -71.8995 380.1014 -233.3059)">
						<stop  offset="0" style="stop-color:#D9B753"/>
						<stop  offset="0.6818" style="stop-color:#D3AF44"/>
						<stop  offset="0.9134" style="stop-color:#D3B357"/>
						<stop  offset="1" style="stop-color:#D3B357"/>
					</linearGradient>
					
						<rect x="241.67" y="763.94" style="clip-path:url(#SVGID_00000111895455148682806350000009136305802729397400_);fill:url(#SVGID_00000160912997101884884410000000365092393267139773_);" width="104.85" height="95.64"/>
				</g>
				<g style="clip-path:url(#SVGID_00000010303171677774152820000009403946134679228340_);">
					<defs>
						<path id="SVGID_00000082360589941911019390000012273211743794382267_" d="M287.96,810.26l21.72-32.86
							C298.34,790.15,287.96,810.26,287.96,810.26"/>
					</defs>
					<clipPath id="SVGID_00000173122673296728368770000014935528905868075177_">
						<use xlink:href="#SVGID_00000082360589941911019390000012273211743794382267_"  style="overflow:visible;"/>
					</clipPath>
					
						<linearGradient id="SVGID_00000159457168310991842240000015385561239630631843_" gradientUnits="userSpaceOnUse" x1="-8.0389" y1="-67.77" x2="-6.6221" y2="-67.77" gradientTransform="matrix(15.3273 0 0 -15.3273 411.1727 -244.903)">
						<stop  offset="0" style="stop-color:#D9B753"/>
						<stop  offset="0.6818" style="stop-color:#D3AF44"/>
						<stop  offset="0.9134" style="stop-color:#D3B357"/>
						<stop  offset="1" style="stop-color:#D3B357"/>
					</linearGradient>
					
						<rect x="287.96" y="777.4" style="clip-path:url(#SVGID_00000173122673296728368770000014935528905868075177_);fill:url(#SVGID_00000159457168310991842240000015385561239630631843_);" width="21.72" height="32.86"/>
				</g>
				<g style="clip-path:url(#SVGID_00000010303171677774152820000009403946134679228340_);">
					<defs>
						<path id="SVGID_00000135688020085660048900000001556127856210759305_" d="M661.54,850.7c2.2-7.72,11.16-15.82,11.16-15.82
							c1.73-0.61,1.11,4.85,1.11,4.85c-0.21,7.45-6.13,11.35-9.83,13.06c-0.25,0.11-0.5,0.17-0.74,0.17
							C662.13,852.96,661.2,851.89,661.54,850.7 M653.97,843.99c-3.26,5.43-15.59,32.63,0,38.28c15.59,5.65,36.68-31.37,36.68-31.37
							s-1.23-4.43-4.79,0c-3.55,4.43-29.06,38.44-29.06,24.27s2.83-15.59,2.83-15.59s24.1-11.13,19.84-24.69
							c-1.51-4.8-4.08-6.84-7.15-6.84C666.73,828.05,659.46,834.83,653.97,843.99"/>
					</defs>
					<clipPath id="SVGID_00000152235959347107054410000000724078410518574245_">
						<use xlink:href="#SVGID_00000135688020085660048900000001556127856210759305_"  style="overflow:visible;"/>
					</clipPath>
					
						<linearGradient id="SVGID_00000145023446920656670860000000429203217081452472_" gradientUnits="userSpaceOnUse" x1="-0.5682" y1="-33.8369" x2="0.8486" y2="-33.8369" gradientTransform="matrix(31.3296 0 0 -31.3296 664.0585 -201.4117)">
						<stop  offset="0" style="stop-color:#D9B753"/>
						<stop  offset="0.6818" style="stop-color:#D3AF44"/>
						<stop  offset="0.9134" style="stop-color:#D3B357"/>
						<stop  offset="1" style="stop-color:#D3B357"/>
					</linearGradient>
					
						<rect x="638.38" y="828.05" style="clip-path:url(#SVGID_00000152235959347107054410000000724078410518574245_);fill:url(#SVGID_00000145023446920656670860000000429203217081452472_);" width="52.26" height="61.28"/>
				</g>
				<g style="clip-path:url(#SVGID_00000010303171677774152820000009403946134679228340_);">
					<defs>
						<path id="SVGID_00000100340555255488616960000014786041410752697775_" d="M444.76,968.3c2.2-7.72,11.16-15.82,11.16-15.82
							c1.73-0.6,1.11,4.85,1.11,4.85c-0.21,7.45-6.13,11.35-9.83,13.06c-0.25,0.11-0.5,0.17-0.74,0.17
							C445.35,970.56,444.42,969.49,444.76,968.3 M435.77,964.42c-3.26,5.43-15.59,32.63,0,38.28
							c15.59,5.64,36.68-31.37,36.68-31.37s-1.23-4.43-4.79,0c-3.55,4.43-29.06,38.44-29.06,24.27s2.83-15.59,2.83-15.59
							s24.1-11.13,19.84-24.69c-1.51-4.8-4.08-6.84-7.15-6.84C448.53,948.48,441.27,955.27,435.77,964.42"/>
					</defs>
					<clipPath id="SVGID_00000104702400129200372780000016327315073627108022_">
						<use xlink:href="#SVGID_00000100340555255488616960000014786041410752697775_"  style="overflow:visible;"/>
					</clipPath>
					
						<linearGradient id="SVGID_00000165919468187930224420000006166747545142830775_" gradientUnits="userSpaceOnUse" x1="-2.6172" y1="-34.9679" x2="-1.2003" y2="-34.9679" gradientTransform="matrix(31.3296 0 0 -31.3296 510.0585 -116.4116)">
						<stop  offset="0" style="stop-color:#D9B753"/>
						<stop  offset="0.6818" style="stop-color:#D3AF44"/>
						<stop  offset="0.9134" style="stop-color:#D3B357"/>
						<stop  offset="1" style="stop-color:#D3B357"/>
					</linearGradient>
					
						<rect x="420.19" y="948.48" style="clip-path:url(#SVGID_00000104702400129200372780000016327315073627108022_);fill:url(#SVGID_00000165919468187930224420000006166747545142830775_);" width="52.26" height="61.28"/>
				</g>
				<g style="clip-path:url(#SVGID_00000010303171677774152820000009403946134679228340_);">
					<defs>
						<path id="SVGID_00000010311270834312267400000011574567459989280641_" d="M751.97,812.97l1.17-1.57
							C753.15,811.4,752.72,811.95,751.97,812.97 M733.31,819.9c-24.09,36.84-9.92,59.51-9.92,59.51
							c11.33,19.84,28.34,1.42,28.34,1.42c2.83,2.83,17,12.75,17,12.75c0-2.83-12.75-17-12.75-17
							c12.75-11.33,26.92-41.09,26.92-41.09c7.08-28.34-1.42-31.17-5.67-32.59c-4.25-1.42-17,5.67-22.67,15.59
							c-5.67,9.92,1.42,8.5,1.42,8.5c15.59-21.25,21.25-15.59,21.25-15.59c5.67,19.84-26.92,59.51-26.92,59.51
							c-7.08-8.5-8.5-4.25-8.5-4.25c-2.83,4.25,2.83,9.92,2.83,9.92c-15.59,11.33-17,0-17,0c-3.74-23.69,18.85-56.16,24.33-63.61
							l-11.58,15.44l-7.08,9.92c5.63-10.51,10.47-18.04,14.59-23.48c1.37-1.81,2.67-3.39,3.88-4.78
							c8.91-10.12,13.7-9.58,15.54-11.42c2.83-2.83-4.25-5.67-4.25-5.67s-0.69-1.22-2.63-1.22
							C756.84,791.77,748.96,795.96,733.31,819.9"/>
					</defs>
					<clipPath id="SVGID_00000093170770381436739080000000422958990412685200_">
						<use xlink:href="#SVGID_00000010311270834312267400000011574567459989280641_"  style="overflow:visible;"/>
					</clipPath>
					
						<linearGradient id="SVGID_00000095331980608467094680000017886124218834910124_" gradientUnits="userSpaceOnUse" x1="0.0784" y1="-22.5423" x2="1.4953" y2="-22.5423" gradientTransform="matrix(46.8424 0 0 -46.8424 715.5782 -210.4288)">
						<stop  offset="0" style="stop-color:#D9B753"/>
						<stop  offset="0.6818" style="stop-color:#D3AF44"/>
						<stop  offset="0.9134" style="stop-color:#D3B357"/>
						<stop  offset="1" style="stop-color:#D3B357"/>
					</linearGradient>
					
						<rect x="709.22" y="791.77" style="clip-path:url(#SVGID_00000093170770381436739080000000422958990412685200_);fill:url(#SVGID_00000095331980608467094680000017886124218834910124_);" width="80.76" height="107.48"/>
				</g>
				<g style="clip-path:url(#SVGID_00000010303171677774152820000009403946134679228340_);">
					<defs>
						<path id="SVGID_00000182490897155381056550000003979627035853055377_" d="M843.31,867.9c0,0-1-24.23,10.92-30.44
							c0,0,2.85-4.24,3.18,6.97c0.08,2.52-1.12,5.04-2.34,7.25c-3.15,5.73-9.2,17.04-11.17,17.04
							C843.61,868.72,843.4,868.46,843.31,867.9 M960.91,867.9c0,0-1-24.23,10.92-30.44c0,0,2.85-4.24,3.18,6.97
							c0.08,2.52-1.13,5.04-2.34,7.25c-3.15,5.73-9.2,17.04-11.17,17.04C961.2,868.72,961,868.46,960.91,867.9 M1072.84,857.98
							c0,0-1-24.23,10.92-30.44c0,0,2.85-4.24,3.18,6.96c0.08,2.52-1.12,5.04-2.34,7.25c-3.15,5.73-9.2,17.04-11.17,17.04
							C1073.13,858.8,1072.93,858.54,1072.84,857.98 M1021.83,855.15c0,0-1-24.23,10.92-30.44c0,0,2.85-4.24,3.18,6.97
							c0.08,2.52-1.12,5.04-2.34,7.25c-3.15,5.73-9.2,17.04-11.17,17.04C1022.13,855.96,1021.92,855.71,1021.83,855.15
							 M1137.59,823.78c2.2-7.72,11.16-15.82,11.16-15.82c1.73-0.61,1.11,4.86,1.11,4.86c-0.21,7.45-6.14,11.35-9.83,13.06
							c-0.25,0.11-0.5,0.17-0.74,0.17C1138.18,826.04,1137.26,824.97,1137.59,823.78 M989.96,835.55
							c1.23-7.79,7.73-46.54,15.38-43.99c0,0,8.5,2.83-8.5,32.59l-6.42,11.55c-0.05,0.09-0.13,0.13-0.22,0.13
							C990.07,835.83,989.94,835.72,989.96,835.55 M904.75,834.07c1.23-7.79,12.19-54.97,19.84-52.42c0,0,8.5,2.83-8.5,32.59
							l-6.42,11.55C909.53,826.02,904.86,834.08,904.75,834.07C904.75,834.08,904.75,834.08,904.75,834.07 M1101.9,822.8
							c1.23-7.79,7.73-46.54,15.38-43.99c0,0,8.5,2.83-8.5,32.59l-6.42,11.55c-0.05,0.09-0.13,0.13-0.22,0.13
							C1102,823.08,1101.87,822.97,1101.9,822.8 M1114.44,773.15c-7.08,1.42-15.59,7.08-19.84,31.17
							c-4.25,24.09-4.25,22.67-4.25,22.67s-12.75-14.17-19.84-1.42c-7.08,12.75-17,32.59-21.25,32.59c-4.25,0,1.42-25.5,2.83-28.34
							s-4.25-9.92-9.92-4.25l-2.83,4.25c0,0-1.42-9.92-9.92-9.92c-8.5,0-14.17,15.59-14.17,15.59s-4.25,1.42-24.09,35.42
							c0,0-7.08,11.33-5.67-7.08c1.42-18.42,2.83-22.67,2.83-22.67s31.17-38.25,22.67-53.84c-8.5-15.59-24.09,11.33-28.34,28.34
							c-4.25,17-4.25,22.67-4.25,22.67s-11.33-15.59-19.84-2.83l-2.83,5.67c0,0-1.42-1.42-4.25,2.83
							c-2.83,4.25-12.75,19.84-15.59,15.59c-2.83-4.25,4.25-19.84,4.25-19.84s1.42-5.67-4.25-5.67s-7.08,7.08-7.08,7.08
							s-15.59,38.25-25.5,43.92c-8.76,5.01-6.47-22.06-5.81-28.43c0.09-0.92,0.27-1.82,0.53-2.71c0.95-3.2,3.66-11.15,8.11-15.61
							c5.67-5.67,31.17-48.17,24.09-58.09c-7.08-9.92-12.75-4.25-15.59,0c-2.42,3.63-16.27,24.4-22.22,55.6
							c-0.32,1.69-0.83,3.33-1.58,4.88c-3.51,7.35-14.49,29.26-21.55,31.61c-8.5,2.83,4.25-25.5,4.25-25.5s2.83-12.75-5.67-9.92
							c0,0-3.93,1.62-6.92,5.77c0,0-3-11.44-10.08-10.02c-7.08,1.42-9.92,7.08-14.17,15.59c0,0-12.75,17-17,17
							c-4.25,0,5.67-19.84,5.67-19.84s1.42-7.08-7.08-5.67c0,0-17,25.5-21.25,26.92c-4.25,1.42-1.42-8.5-1.42-8.5
							s2.83-9.92,5.67-12.75c0,0,9.92-11.33-2.83-11.33c-12.75,0-17,48.17-7.08,41.09c9.92-7.08,18.92-20.19,18.92-20.19
							s-4.75,15.94,5.16,15.94c9.92,0,18.42-14.17,18.42-14.17s-4.51,17.01,5.54,19.13c10.05,2.12,21.38-23.38,21.38-23.38
							s-8.5,21.25,5.67,28.34c0,0,7.08,5.67,22.67-29.75c0,0-11.02,41.09,6.53,42.51c0,0,7.64,8.5,31.72-36.84
							c0,0,5.6,14.8,15.55,7.4c4.37-3.25,6.55-6.16,7.62-8.41c-0.82,6.05-0.78,16.06,8.01,18.01c0,0,4.25,2.83,15.59-14.17
							c0,0-1.42,22.67,11.33,21.25c0,0,5.67,0,15.59-19.84c9.92-19.84,12.75-18.42,12.75-18.42s-4.2,21.89,7.11,21.57
							c11.31-0.32,18.39-25.82,18.39-25.82s-5.67,29.75,8.5,28.34c0,0,8.5,0,15.59-19.84c0,0-1.42,18.42,9.92,17
							c0,0,5.67,1.42,14.17-14.17c0,0,1.42,21.25,11.33,21.25c0,0,7.08-1.42,18.42-25.5c0,0,5.67-14.17,9.92-15.59
							c0,0-7.08,29.75,12.75,26.92c0,0,7.08,1.42,15.59-17l11.33-21.25c0,0-1.42-4.25-5.67,2.83c-4.25,7.08-12.75,24.09-17,26.92
							s-5.67,4.25-7.08-1.42s0-14.17,0-14.17s22.67-12.75,17-25.5c-5.67-12.75-21.25-1.42-25.5,15.59c0,0-4.25-1.42-14.17,21.25
							c-9.92,22.67-15.59,21.25-15.59,14.17v-25.5c0,0,25.55-32.27,25.56-52.28c0-1.18-0.35-2.31-1.01-3.29
							c-1.17-1.73-3.45-4.13-7.13-4.13C1115.69,772.96,1115.08,773.02,1114.44,773.15"/>
					</defs>
					<clipPath id="SVGID_00000093160345735533476410000005570697866524604050_">
						<use xlink:href="#SVGID_00000182490897155381056550000003979627035853055377_"  style="overflow:visible;"/>
					</clipPath>
					
						<linearGradient id="SVGID_00000119835625276905972290000014751147549289383575_" gradientUnits="userSpaceOnUse" x1="0.0866" y1="-3.9166" x2="1.5035" y2="-3.9166" gradientTransform="matrix(268.8675 0 0 -268.8675 762.6324 -216.843)">
						<stop  offset="0" style="stop-color:#D9B753"/>
						<stop  offset="0.6818" style="stop-color:#D3AF44"/>
						<stop  offset="0.9134" style="stop-color:#D3B357"/>
						<stop  offset="1" style="stop-color:#D3B357"/>
					</linearGradient>
					
						<rect x="781.48" y="770.31" style="clip-path:url(#SVGID_00000093160345735533476410000005570697866524604050_);fill:url(#SVGID_00000119835625276905972290000014751147549289383575_);" width="385.38" height="131.77"/>
				</g>
				<g style="clip-path:url(#SVGID_00000010303171677774152820000009403946134679228340_);">
					<defs>
						<path id="SVGID_00000045592428192804146870000007739463621496051073_" d="M944.31,807.38c-1.96,0.25-4.43,0.91-3.54,2.69
							c1.42,2.83,2.46,5.21-0.19,8.27c-2.65,3.06-6.9,8.73-4.06,10.14c2.83,1.42,15.59-12.75,15.59-15.59
							c0-1.77-2.22-3.55-3.89-4.63c-0.95-0.62-2.06-0.94-3.18-0.94C944.8,807.34,944.55,807.35,944.31,807.38"/>
					</defs>
					<clipPath id="SVGID_00000021802818686401534580000012938613792978282890_">
						<use xlink:href="#SVGID_00000045592428192804146870000007739463621496051073_"  style="overflow:visible;"/>
					</clipPath>
					
						<linearGradient id="SVGID_00000153674224373293220450000012066415635853306815_" gradientUnits="userSpaceOnUse" x1="5.7729" y1="-89.741" x2="7.1898" y2="-89.741" gradientTransform="matrix(11.6612 0 0 -11.6612 868.2637 -227.8681)">
						<stop  offset="0" style="stop-color:#D9B753"/>
						<stop  offset="0.6818" style="stop-color:#D3AF44"/>
						<stop  offset="0.9134" style="stop-color:#D3B357"/>
						<stop  offset="1" style="stop-color:#D3B357"/>
					</linearGradient>
					
						<rect x="933.69" y="807.34" style="clip-path:url(#SVGID_00000021802818686401534580000012938613792978282890_);fill:url(#SVGID_00000153674224373293220450000012066415635853306815_);" width="18.42" height="22.57"/>
				</g>
				<g style="clip-path:url(#SVGID_00000010303171677774152820000009403946134679228340_);">
					<defs>
						<path id="SVGID_00000076599472085008139570000003333920437456856707_" d="M460.54,937.12c-4.99,5.28-3.51,8.88-3.51,8.88
							c4.25,0,11.33-5.67,12.75-9.92c1.42-4.25-7.08-4.25-7.08-4.25S465.53,931.83,460.54,937.12"/>
					</defs>
					<clipPath id="SVGID_00000052062473610782008740000005908203296427625094_">
						<use xlink:href="#SVGID_00000076599472085008139570000003333920437456856707_"  style="overflow:visible;"/>
					</clipPath>
					
						<linearGradient id="SVGID_00000007410591250644636670000012598157742607225492_" gradientUnits="userSpaceOnUse" x1="-7.9446" y1="-116.8358" x2="-6.5277" y2="-116.8358" gradientTransform="matrix(9.2559 0 0 -9.2559 530.3566 -142.5)">
						<stop  offset="0" style="stop-color:#D9B753"/>
						<stop  offset="0.6818" style="stop-color:#D3AF44"/>
						<stop  offset="0.9134" style="stop-color:#D3B357"/>
						<stop  offset="1" style="stop-color:#D3B357"/>
					</linearGradient>
					
						<rect x="455.55" y="931.83" style="clip-path:url(#SVGID_00000052062473610782008740000005908203296427625094_);fill:url(#SVGID_00000007410591250644636670000012598157742607225492_);" width="15.64" height="14.17"/>
				</g>
				<g style="clip-path:url(#SVGID_00000010303171677774152820000009403946134679228340_);">
					<defs>
						<path id="SVGID_00000140715804562780133760000000796190596931918527_" d="M548.37,994.75c-1.34-12.18,9.25-20.42,9.25-20.42
							c1.42,8.5,10.69,8.06,10.69,8.06c-4.15,9.97-11.15,13.76-15.45,15.18c-0.36,0.12-0.73,0.18-1.09,0.18
							C550.09,997.76,548.56,996.52,548.37,994.75 M564.71,964.42c8.5-18.42,10.19-1.42,10.05,0c-0.13,1.42-0.13,9.92-4.39,14.17
							c-0.32,0.32-1.88,0.87-3.58,0.87C563.17,979.46,558.92,976.96,564.71,964.42 M559.04,965.84c-7.08-2.83-14.17,8.5-14.17,8.5
							l-21.25,17c-2.83-8.5,7.06-19.91,7.06-19.91s5.69-7.01,2.86-12.67s-8.5,1.42-8.5,1.42l-18.42,19.84
							c-1.42-7.08,7.08-15.59,9.92-21.25s-7.08-4.25-7.08-4.25s-2.83,4.25-8.5,18.42s1.42,15.59,1.42,15.59
							c7.08,0,8.5-7.08,8.5-7.08l11.05-12.28c-0.95,1.45-2.37,3.99-4.4,8.5c-4.69,10.39-2.4,10.86,3.27,19.36
							s18.42-12.75,18.42-12.75c-2.83,7.08,1.42,15.59,11.62,19.03c10.2,3.44,26.63-20.44,26.63-20.44l8.5-1.42
							c8.5-1.42,4.25-4.25,4.25-4.25l-11.33,1.42c0,0,2.83-9.92,2.83-11.33c0-1.42,0-15.59-9.92-15.59S559.04,965.84,559.04,965.84"
							/>
					</defs>
					<clipPath id="SVGID_00000148643591083320552830000001403108485977190537_">
						<use xlink:href="#SVGID_00000140715804562780133760000000796190596931918527_"  style="overflow:visible;"/>
					</clipPath>
					
						<linearGradient id="SVGID_00000061463406265625355000000011473982446491115955_" gradientUnits="userSpaceOnUse" x1="-0.9372" y1="-16.7153" x2="0.4797" y2="-16.7153" gradientTransform="matrix(65.301 0 0 -65.301 559.949 -115.1659)">
						<stop  offset="0" style="stop-color:#D9B753"/>
						<stop  offset="0.6818" style="stop-color:#D3AF44"/>
						<stop  offset="0.9134" style="stop-color:#D3B357"/>
						<stop  offset="1" style="stop-color:#D3B357"/>
					</linearGradient>
					
						<rect x="495.28" y="946" style="clip-path:url(#SVGID_00000148643591083320552830000001403108485977190537_);fill:url(#SVGID_00000061463406265625355000000011473982446491115955_);" width="99.18" height="60.72"/>
				</g>
				<g style="clip-path:url(#SVGID_00000010303171677774152820000009403946134679228340_);">
					<defs>
						<path id="SVGID_00000157301942348420187630000012067524835416731547_" d="M581.71,1016.84c-2.13-4.27,7.78-11.75,12.81-15.18
							c1.17-0.8,2.74,0.12,2.64,1.53c-0.16,2.23-0.51,5.03-1.28,6.57c-1.11,2.22-7.45,8.8-11.5,8.8
							C583.26,1018.56,582.32,1018.07,581.71,1016.84 M601.54,960.17c-4.25,1.42-9.78,4.06-8.43,14.78
							c1.35,10.72,4.18,19.22,4.18,19.22s-29.75,14.17-18.42,25.5c11.33,11.33,23.61,0,23.61,0s6.14-7.08,4.73-22.67
							c0,0,19.84-11.33,21.25-14.17c1.42-2.83-0.6-6.77-3.84-3.38c-3.24,3.38-17.41,13.3-20.25,10.47c0,0,0-17-1.42-19.84l1.42-3.45
							c0.99-2.4,1.33-6.71-1.52-6.71C602.48,959.93,602.04,960,601.54,960.17"/>
					</defs>
					<clipPath id="SVGID_00000077308090498285855100000014407742804880949180_">
						<use xlink:href="#SVGID_00000157301942348420187630000012067524835416731547_"  style="overflow:visible;"/>
					</clipPath>
					
						<linearGradient id="SVGID_00000098923650362500527620000014608481843082535841_" gradientUnits="userSpaceOnUse" x1="-1.0334" y1="-29.6229" x2="0.3834" y2="-29.6229" gradientTransform="matrix(37.1428 0 0 -37.1428 614.6824 -104.8075)">
						<stop  offset="0" style="stop-color:#D9B753"/>
						<stop  offset="0.6818" style="stop-color:#D3AF44"/>
						<stop  offset="0.9134" style="stop-color:#D3B357"/>
						<stop  offset="1" style="stop-color:#D3B357"/>
					</linearGradient>
					
						<rect x="567.54" y="959.93" style="clip-path:url(#SVGID_00000077308090498285855100000014407742804880949180_);fill:url(#SVGID_00000098923650362500527620000014608481843082535841_);" width="62.34" height="71.08"/>
				</g>
				<g style="clip-path:url(#SVGID_00000010303171677774152820000009403946134679228340_);">
					<defs>
						<path id="SVGID_00000074430785771861165470000003416987837085870012_" d="M621.38,1016.84c-2.13-4.27,7.78-11.75,12.81-15.18
							c1.17-0.8,2.74,0.12,2.64,1.53c-0.16,2.23-0.51,5.03-1.28,6.57c-1.11,2.22-7.45,8.8-11.5,8.8
							C622.93,1018.56,621.99,1018.07,621.38,1016.84 M639.8,961.59c-4.25,1.42-9.78,4.06-8.43,14.78
							c1.35,10.72,4.18,19.22,4.18,19.22s-29.75,14.17-18.42,25.5s23.61,0,23.61,0s6.14-7.08,4.73-22.67c0,0,10.42-5.95,16.7-10.31
							c1.02-2.61,2.41-5.34,4.14-8.13c-0.76-0.66-1.97-0.62-3.42,0.89c-3.24,3.38-17.41,13.3-20.25,10.47c0,0,0-17-1.42-19.84
							l1.42-3.45c0.99-2.4,1.33-6.71-1.52-6.71C640.73,961.34,640.3,961.42,639.8,961.59"/>
					</defs>
					<clipPath id="SVGID_00000130634862418544778950000010913255176245774210_">
						<use xlink:href="#SVGID_00000074430785771861165470000003416987837085870012_"  style="overflow:visible;"/>
					</clipPath>
					
						<linearGradient id="SVGID_00000093881335736972414470000017171997554403819419_" gradientUnits="userSpaceOnUse" x1="-0.7428" y1="-30.1392" x2="0.674" y2="-30.1392" gradientTransform="matrix(36.5203 0 0 -36.5203 641.6824 -103.8075)">
						<stop  offset="0" style="stop-color:#D9B753"/>
						<stop  offset="0.6818" style="stop-color:#D3AF44"/>
						<stop  offset="0.9134" style="stop-color:#D3B357"/>
						<stop  offset="1" style="stop-color:#D3B357"/>
					</linearGradient>
					
						<rect x="605.79" y="961.34" style="clip-path:url(#SVGID_00000130634862418544778950000010913255176245774210_);fill:url(#SVGID_00000093881335736972414470000017171997554403819419_);" width="60.5" height="71.08"/>
				</g>
				<g style="clip-path:url(#SVGID_00000010303171677774152820000009403946134679228340_);">
					<defs>
						<path id="SVGID_00000021103000150063779050000007733710618171306411_" d="M671.88,1001.08c0,0-1-24.23,10.92-30.44
							c0,0,2.85-4.24,3.18,6.97c0.07,2.53-1.13,5.04-2.34,7.25c-3.15,5.73-9.2,17.04-11.17,17.04
							C672.17,1001.9,671.96,1001.64,671.88,1001.08 M672.39,971.5c-2.33,2.85-4.37,5.69-6.09,8.48c0.94,0.82,1.2,2.71,0.42,4.27
							c-0.39,0.78-2.18,2.2-4.56,3.86c-3.55,9.05-2.63,16.64,4.56,20.23c0,0,4.25,2.83,12.75-8.5c6.22-8.29,7.82-11.26,8.23-12.27
							c-1.05,3.46-7.1,25.02,5.94,25.02c14.17,0,24.09-31.17,24.09-31.17s0-4.25-8.5,8.5c-8.5,12.75-12.75,18.42-14.17,14.17
							c-1.42-4.25,4.25-19.84,4.25-19.84s5.67-8.5,1.42-11.33c-4.25-2.83-8.5-2.83-9.92,2.83c0,0-2.92-10.22-9.29-10.22
							C679.02,965.53,675.98,967.11,672.39,971.5"/>
					</defs>
					<clipPath id="SVGID_00000096027504343598281400000014040162737303925170_">
						<use xlink:href="#SVGID_00000021103000150063779050000007733710618171306411_"  style="overflow:visible;"/>
					</clipPath>
					
						<linearGradient id="SVGID_00000177459841945354210390000010889865737026167693_" gradientUnits="userSpaceOnUse" x1="-0.3375" y1="-26.9749" x2="1.0794" y2="-26.9749" gradientTransform="matrix(40.6367 0 0 -40.6367 673.8633 -107.1082)">
						<stop  offset="0" style="stop-color:#D9B753"/>
						<stop  offset="0.6818" style="stop-color:#D3AF44"/>
						<stop  offset="0.9134" style="stop-color:#D3B357"/>
						<stop  offset="1" style="stop-color:#D3B357"/>
					</linearGradient>
					
						<rect x="658.62" y="965.53" style="clip-path:url(#SVGID_00000096027504343598281400000014040162737303925170_);fill:url(#SVGID_00000177459841945354210390000010889865737026167693_);" width="59.11" height="47.06"/>
				</g>
				<g style="clip-path:url(#SVGID_00000010303171677774152820000009403946134679228340_);">
					<defs>
						<path id="SVGID_00000170987166474681840070000016149343842964233880_" d="M816.39,1001.08c0,0-1-24.23,10.92-30.44
							c0,0,2.85-4.24,3.18,6.97c0.08,2.53-1.12,5.04-2.34,7.25c-3.15,5.73-9.2,17.04-11.17,17.04
							C816.69,1001.9,816.48,1001.64,816.39,1001.08 M767.31,967.25c-4.25,7.08-14.17,25.5-14.17,25.5s0-11.33,5.67-17
							c0,0-2.83-8.5-5.67-7.08c-2.83,1.42-15.59,28.34-1.42,34c0,0,1.42,1.42,4.25-5.67c2.83-7.08,12.75-29.75,17-31.17
							c0,0-11.33,26.92-4.25,29.75c0,0,3.49,3.49,6.26-4.29c1.03-2.9,2.21-5.74,3.71-8.42c2.58-4.62,6.48-10.53,9.87-11.37
							c0,0,2.83-4.25-5.67,15.59s8.5,25.5,12.75,19.84c4.25-5.67,11.33-15.59,11.33-15.59s-2.83,15.59,8.5,15.59
							c0,0,4.25,1.42,18.42-22.67c0,0-8.5,26.92,7.08,26.92c0,0,4.25,1.42,7.08-4.25s12.75-19.84,14.17-26.92
							c0.09-0.46,0.15-0.84,0.19-1.16c-0.23-0.38-0.43-0.81-0.6-1.29c-1.24,0.72-3.84,5.28-3.84,5.28s-15.59,28.34-17,19.84
							c-1.42-8.5,5.67-25.5,5.67-25.5s2.83-9.92-5.67-8.5c0,0-2.83,0-5.67,5.67c0,0-5.67-14.17-12.75-9.92
							c-7.08,4.25-12.75,17-12.75,17s-17,22.67-18.42,21.25c-1.42-1.42-2.83-1.42,0-9.92s9.92-26.92,2.83-28.34
							c-7.08-1.42-18.42,18.42-18.42,18.42s8.5-21.25,2.83-22.67c-1.27-0.32-2.33-0.49-3.26-0.49
							C772.2,959.68,770.61,961.76,767.31,967.25"/>
					</defs>
					<clipPath id="SVGID_00000095314499062332157240000006414711080608499635_">
						<use xlink:href="#SVGID_00000170987166474681840070000016149343842964233880_"  style="overflow:visible;"/>
					</clipPath>
					
						<linearGradient id="SVGID_00000029728506135744655790000018082519852728125362_" gradientUnits="userSpaceOnUse" x1="0.1365" y1="-13.2392" x2="1.5533" y2="-13.2392" gradientTransform="matrix(82.7659 0 0 -82.7659 733.8668 -109.6187)">
						<stop  offset="0" style="stop-color:#D9B753"/>
						<stop  offset="0.6818" style="stop-color:#D3AF44"/>
						<stop  offset="0.9134" style="stop-color:#D3B357"/>
						<stop  offset="1" style="stop-color:#D3B357"/>
					</linearGradient>
					
						<rect x="737.56" y="959.68" style="clip-path:url(#SVGID_00000095314499062332157240000006414711080608499635_);fill:url(#SVGID_00000029728506135744655790000018082519852728125362_);" width="124.87" height="52.92"/>
				</g>
				<g style="clip-path:url(#SVGID_00000010303171677774152820000009403946134679228340_);">
					<defs>
						<path id="SVGID_00000117646917363600960060000017752563726297498786_" d="M945.32,994c0,0-1-24.23,10.92-30.44
							c0,0,2.85-4.24,3.18,6.97c0.08,2.52-1.12,5.04-2.34,7.25c-3.15,5.73-9.2,17.04-11.17,17.04
							C945.62,994.81,945.42,994.56,945.32,994 M903.33,972.92c0,0-25.5,35.42-28.34,35.42s4.25-17,7.08-25.5
							c2.13-6.4,0.25-6.37-3.83-6.35c-1.34,0.01-2.92,0.01-4.67-0.21c-7.08-0.89-4.21-3.71-4.21-3.71c5.71-6.02,2.8-8.15,2.8-8.15
							c-7.08-4.25-9.69,3.75-9.69,3.75c-1.31,4.31-1.34,7.31-0.63,9.39c0.47-0.27,0.74,0,0.6,1.29c2.96,4.88,11.15,2.58,11.15,2.58
							s-11.33,22.67-4.25,32.59c7.08,9.92,29.75-26.92,29.75-26.92s-7.08,18.42,7.08,22.67c14.17,4.25,29.75-28.34,29.75-28.34
							c0,21.25,7.08,18.42,7.08,18.42c9.92,1.42,19.84-22.67,19.84-22.67c-5.67,14.17,0,25.5,7.08,26.92
							c7.08,1.42,17-21.25,19.84-29.54c2.83-8.29,0-5.88,0-5.88s-12.75,21.25-17,26.92c-4.25,5.67-1.42-15.59-1.42-15.59
							c5.67-15.59,2.83-17,2.83-17c-4.25-7.08-11.33,2.83-11.33,2.83c-1.42-8.5-7.08-8.5-7.08-8.5
							c-9.09-1.14-13.63,8.67-15.07,12.59c-0.4,1.09-1.02,2.08-1.81,2.93c-2.52,2.72-8.63,9.63-17.13,21.32
							c-7.56,10.39-10.7,8.19-11.97,5.56c-0.6-1.25-0.79-2.67-0.7-4.06c2.89-41.12,9.83-38.34,9.83-38.34s4.25,1.42,1.42,8.5
							c-2.83,7.08,2.83,5.67,2.83,5.67s8.5-18.42-4.25-18.42C906.16,953.09,903.33,972.92,903.33,972.92"/>
					</defs>
					<clipPath id="SVGID_00000022526689876554727760000002785934674776621977_">
						<use xlink:href="#SVGID_00000117646917363600960060000017752563726297498786_"  style="overflow:visible;"/>
					</clipPath>
					
						<linearGradient id="SVGID_00000013168988410711333530000009328521286417043342_" gradientUnits="userSpaceOnUse" x1="0.4971" y1="-12.01" x2="1.914" y2="-12.01" gradientTransform="matrix(91.4997 0 0 -91.4997 815.8892 -110.4017)">
						<stop  offset="0" style="stop-color:#D9B753"/>
						<stop  offset="0.6818" style="stop-color:#D3AF44"/>
						<stop  offset="0.9134" style="stop-color:#D3B357"/>
						<stop  offset="1" style="stop-color:#D3B357"/>
					</linearGradient>
					
						<rect x="861.13" y="953.09" style="clip-path:url(#SVGID_00000022526689876554727760000002785934674776621977_);fill:url(#SVGID_00000013168988410711333530000009328521286417043342_);" width="131.46" height="70.84"/>
				</g>
				<g style="clip-path:url(#SVGID_00000010303171677774152820000009403946134679228340_);">
					<defs>
						<path id="SVGID_00000013187915745285054960000003836333976873399992_" d="M1006.63,914.94c-0.86,1.51-1.35,3.21-1.57,4.93
							c-1.45,11.56-7.91,64.65-4.05,64.53c3.7-0.12,13.28-48.61,16.02-62.85c0.61-3.19-0.34-6.56-2.76-8.72
							c-0.95-0.84-2.03-1.46-3.18-1.46C1009.66,911.37,1008.13,912.31,1006.63,914.94"/>
					</defs>
					<clipPath id="SVGID_00000150803987744009427070000017117031407363874464_">
						<use xlink:href="#SVGID_00000013187915745285054960000003836333976873399992_"  style="overflow:visible;"/>
					</clipPath>
					
						<linearGradient id="SVGID_00000042737267776858842800000005202807825179663029_" gradientUnits="userSpaceOnUse" x1="7.0157" y1="-88.2234" x2="8.4325" y2="-88.2234" gradientTransform="matrix(12.2883 0 0 -12.2883 913.5851 -136.173)">
						<stop  offset="0" style="stop-color:#D9B753"/>
						<stop  offset="0.6818" style="stop-color:#D3AF44"/>
						<stop  offset="0.9134" style="stop-color:#D3B357"/>
						<stop  offset="1" style="stop-color:#D3B357"/>
					</linearGradient>
					
						<rect x="997.15" y="911.37" style="clip-path:url(#SVGID_00000150803987744009427070000017117031407363874464_);fill:url(#SVGID_00000042737267776858842800000005202807825179663029_);" width="20.49" height="73.15"/>
				</g>
				<g style="clip-path:url(#SVGID_00000010303171677774152820000009403946134679228340_);">
					<defs>
						<path id="SVGID_00000114770811126631415440000001993017390222470026_" d="M991.02,999.55c-2.68,14.46,18.58-1.12,14.33-8.21
							c0,0-2.51-1.34-5.46-1.34C996.47,990,992.45,991.79,991.02,999.55"/>
					</defs>
					<clipPath id="SVGID_00000016051882805370590980000013043625378979668661_">
						<use xlink:href="#SVGID_00000114770811126631415440000001993017390222470026_"  style="overflow:visible;"/>
					</clipPath>
					
						<linearGradient id="SVGID_00000076602887198593181390000010413852881741259423_" gradientUnits="userSpaceOnUse" x1="7.828" y1="-103.3299" x2="9.2449" y2="-103.3299" gradientTransform="matrix(10.6744 0 0 -10.6744 907.2238 -100.98)">
						<stop  offset="0" style="stop-color:#D9B753"/>
						<stop  offset="0.6818" style="stop-color:#D3AF44"/>
						<stop  offset="0.9134" style="stop-color:#D3B357"/>
						<stop  offset="1" style="stop-color:#D3B357"/>
					</linearGradient>
					
						<rect x="988.34" y="990" style="clip-path:url(#SVGID_00000016051882805370590980000013043625378979668661_);fill:url(#SVGID_00000076602887198593181390000010413852881741259423_);" width="21.25" height="24.01"/>
				</g>
				<g style="clip-path:url(#SVGID_00000010303171677774152820000009403946134679228340_);">
					<defs>
						<path id="SVGID_00000104702441674047354240000003638490197679828670_" d="M470.48,805.88c-1.96,0.25-4.42,0.91-3.54,2.69
							c1.42,2.83,2.46,5.21-0.19,8.27c-2.65,3.06-6.9,8.73-4.06,10.14c2.83,1.42,15.59-12.75,15.59-15.59
							c0-1.78-2.22-3.55-3.88-4.63c-0.95-0.62-2.05-0.94-3.18-0.94C470.97,805.83,470.73,805.85,470.48,805.88"/>
					</defs>
					<clipPath id="SVGID_00000082370214648988765780000012528357434486224782_">
						<use xlink:href="#SVGID_00000104702441674047354240000003638490197679828670_"  style="overflow:visible;"/>
					</clipPath>
					
						<linearGradient id="SVGID_00000145059304907323439890000000525630479449649803_" gradientUnits="userSpaceOnUse" x1="-6.1814" y1="-89.7031" x2="-4.7645" y2="-89.7031" gradientTransform="matrix(11.6612 0 0 -11.6612 533.8387 -228.93)">
						<stop  offset="0" style="stop-color:#D9B753"/>
						<stop  offset="0.6818" style="stop-color:#D3AF44"/>
						<stop  offset="0.9134" style="stop-color:#D3B357"/>
						<stop  offset="1" style="stop-color:#D3B357"/>
					</linearGradient>
					
						<rect x="459.86" y="805.83" style="clip-path:url(#SVGID_00000082370214648988765780000012528357434486224782_);fill:url(#SVGID_00000145059304907323439890000000525630479449649803_);" width="18.42" height="22.57"/>
				</g>
				<g style="clip-path:url(#SVGID_00000010303171677774152820000009403946134679228340_);">
					<defs>
						<path id="SVGID_00000002363208695040194660000007238533627625658251_" d="M533.54,822.74c0,0,0,1.42,2.83,0
							c1.24-0.62,2.74-0.7,4.05-0.59c1.57,0.13,3.08,0.65,4.44,1.46c1.6,0.95,4.35,2.46,7.1,3.38c4.25,1.42,9.92-5.67,9.92-5.67
							s1.42-4.25-2.83-1.42c-2.36,1.57-4.48,1.18-5.9,0.52c-0.87-0.41-1.6-1.05-2.24-1.77c-0.88-0.99-3.18-3-7.45-3
							C537.79,815.65,533.54,822.74,533.54,822.74"/>
					</defs>
					<clipPath id="SVGID_00000041983264705518952270000009551115469081422256_">
						<use xlink:href="#SVGID_00000002363208695040194660000007238533627625658251_"  style="overflow:visible;"/>
					</clipPath>
					
						<linearGradient id="SVGID_00000131337365873352101760000008634723467154878356_" gradientUnits="userSpaceOnUse" x1="-2.528" y1="-51.9574" x2="-1.1112" y2="-51.9574" gradientTransform="matrix(20.16 0 0 -20.16 584.5 -225.4339)">
						<stop  offset="0" style="stop-color:#D9B753"/>
						<stop  offset="0.6818" style="stop-color:#D3AF44"/>
						<stop  offset="0.9134" style="stop-color:#D3B357"/>
						<stop  offset="1" style="stop-color:#D3B357"/>
					</linearGradient>
					
						<rect x="533.54" y="815.65" style="clip-path:url(#SVGID_00000041983264705518952270000009551115469081422256_);fill:url(#SVGID_00000131337365873352101760000008634723467154878356_);" width="29.75" height="12.75"/>
				</g>
				<g style="clip-path:url(#SVGID_00000010303171677774152820000009403946134679228340_);">
					<defs>
						<path id="SVGID_00000180352542372346439950000016539963226028860861_" d="M574.62,868.08c-2.53-5.07,7.4-19.21,9.53-22.14
							c0.13-0.17,0.41-0.11,0.44,0.1c0.8,5.25,11.29,7.87,11.29,7.87c-1.42,4.25-7.08,9.92-7.08,9.92s-6.86,6-11.24,6
							C576.3,869.82,575.25,869.33,574.62,868.08 M522.2,863.82c0,0,2.83-24.09,15.59-28.34c0,0,3.48-3.74,2.04,7.38
							c-0.32,2.5-1.91,4.8-3.46,6.79c-3.96,5.08-11.54,15.07-13.62,15.07C522.4,864.73,522.2,864.45,522.2,863.82 M396.1,860.99
							c0,0,2.83-25.5,15.59-29.75c0,0,3.48-2.32,2.04,8.8c-0.33,2.51,0.93,6.21-0.62,8.21c-3.89,5-13.3,13.74-16.16,13.74
							C396.41,861.98,396.1,861.68,396.1,860.99 M590.21,848.54c-0.74-1.35-0.9-2.94-0.65-4.46c1.66-10.21,6.63-14.44,9.62-16.1
							c1.54-0.86,3.48,0,3.84,1.73c1.25,6.02-2.47,18.92-7.15,20.74c-0.79,0.31-1.49,0.44-2.1,0.44
							C591.96,850.89,590.87,849.74,590.21,848.54 M346.51,848.24c0,0,2.83-24.09,15.59-28.34c0,0,3.48-3.74,2.04,7.38
							c-0.33,2.51-1.91,4.8-3.46,6.79c-3.96,5.08-11.54,15.07-13.62,15.07C346.71,849.14,346.51,848.87,346.51,848.24
							 M454.19,792.98c7.08,1.42-21.25,41.09-24.09,41.09C430.11,834.07,447.11,791.57,454.19,792.98 M417.35,834.07
							c0,0-1.42-2.83-5.67-7.08c-4.25-4.25-14.17,1.42-25.5,17c-11.33,15.59-13.97,12.59-13.97,12.59
							c-2.63-5.83,2.63-14.01,2.63-16.84s8.5-12.75,4.25-17c-2.39-2.39-5.68-0.75-8.1,0.9c-1.88,1.28-3.24,2.56-3.24,1.94v-4.25
							c-4.25-12.75-15.59-4.25-15.59-4.25c-15.59,18.42-32.59,32.59-36.84,36.84c-4.25,4.25-4.25,1.42-4.23-0.44
							c0.01-1.85,7.07-15.15,11.32-20.81s-1.42-8.5-8.5-9.92c-7.08-1.42,1.42-7.08,1.42-7.08c4.25-4.25-2.26-5.39-2.26-5.39
							s-7.66-0.27-9.07,9.64s11.33,8.5,11.33,8.5c-4.25,4.25-8.12,11.51-8.12,11.51s-10.3,16.82-1.8,22.49
							c8.5,5.67,32.59-22.67,32.59-22.67s-4.25,12.75,2.83,17c6.56,3.93,22.81-17.61,25.2-20.84c-0.55,0.85-1.87,3.27-3.95,9.5
							c-2.83,8.5,0,19.84,7.08,19.84s18.42-17,18.42-17s-2.83,12.75,2.83,17c5.67,4.25,21.25-8.5,21.25-8.5
							c-5.67,34,12.75,18.42,12.75,18.42c18.42-22.67,26.92-28.34,26.92-28.34c-2.83,7.08,2.83,14.17,8.5,17
							c5.67,2.83,15.59-12.75,15.59-12.75c-4.25,22.67,2.83,25.5,2.83,25.5v2.83c0,0-2.83,2.83,0,4.25
							c2.83,1.42,1.42,2.83-2.83,2.83s-4.25,4.25-2.83,5.67c1.42,1.42,11.33,1.42,12.75-4.25s-4.29-8.26-4.29-8.26l0.04-1.66
							c14.17,1.42,32.59-25.5,32.59-25.5s-4.25,19.84,5.67,19.84c9.92,0,22.67-21.25,22.67-21.25s-8.5,18.42,0,26.92
							s22.67-18.42,22.67-18.42c-1.42,2.83,4.25,15.59,14.17,15.59c9.92,0,26.92-21.25,26.92-21.25c17-1.42,12.75-5.67,12.75-5.67
							c-5.67,1.42-12.75,1.42-12.75,1.42v-1.42c0,0,7.08-14.17-1.42-24.09c-8.5-9.92-19.84,11.33-19.84,11.33
							c-8.5-1.42-24.09,25.5-32.59,34s-2.83-5.67-2.83-11.33s9.92-14.17,5.67-19.84c-4.25-5.67-11.33,2.83-11.33,2.83
							c0-8.5-5.67-9.92-5.67-9.92c-9.92-4.25-17,11.33-18.42,11.33c-1.42,0-4.25,2.83-4.25,2.83c-25.5,31.17-29.75,25.5-29.75,25.5
							c-7.08-9.92,9.92-39.67,12.75-43.92c2.83-4.25,2.83,4.25,0,9.92s5.67,2.83,5.67,2.83s8.5-19.84-4.25-19.84
							c-12.75,0-18.42,19.84-18.42,19.84s-2.83,0-5.67,4.25c-2.83,4.25-12.75,14.17-16.22,12.59c-3.46-1.57,2.05-9.76,6.3-16.84
							c4.25-7.08-1.42-8.5-1.42-8.5c-8.5-1.42-9.92,8.5-9.92,8.5s-5.67,1.42-18.42,18.42s-14.17,12.75-14.17,12.75
							c-2.83-5.67,1.42-19.84,1.42-19.84s1.42-7.08,8.5-14.17c7.08-7.08,26.92-32.59,26.92-32.59s7.08-11.33-5.67-17
							c-0.65-0.29-1.33-0.43-2.04-0.43C437.76,786.88,417.35,834.07,417.35,834.07"/>
					</defs>
					<clipPath id="SVGID_00000111874339942863688080000005148282658410382992_">
						<use xlink:href="#SVGID_00000180352542372346439950000016539963226028860861_"  style="overflow:visible;"/>
					</clipPath>
					
						<linearGradient id="SVGID_00000026154137407310441800000009879620504463127733_" gradientUnits="userSpaceOnUse" x1="-8.3537" y1="-83.2808" x2="-6.9369" y2="-83.2808" gradientTransform="matrix(12.6875 0 0 -12.6875 452.5 -216.3941)">
						<stop  offset="0" style="stop-color:#D9B753"/>
						<stop  offset="0.6818" style="stop-color:#D3AF44"/>
						<stop  offset="0.9134" style="stop-color:#D3B357"/>
						<stop  offset="1" style="stop-color:#D3B357"/>
					</linearGradient>
					
						<rect x="296.92" y="786.88" style="clip-path:url(#SVGID_00000111874339942863688080000005148282658410382992_);fill:url(#SVGID_00000026154137407310441800000009879620504463127733_);" width="325.87" height="106.69"/>
				</g>
			</g>
		</g>
	</g>
</g>
</svg>
